<?xml version="1.0" encoding="utf-8"?>
<!-- Generator: Adobe Illustrator 26.5.0, SVG Export Plug-In . SVG Version: 6.00 Build 0)  -->
<svg version="1.1" id="Logos" xmlns="http://www.w3.org/2000/svg" xmlns:xlink="http://www.w3.org/1999/xlink" x="0px" y="0px"
	 viewBox="0 0 743.5 141.8" style="enable-background:new 0 0 743.5 141.8;" xml:space="preserve">
<style type="text/css">
	.st0{fill:#00558C;}
	.st1{fill:url(#SVGID_1_);}
	.st2{fill:#A2B2C8;}
</style>
<g>
	<g>
		<path class="st0" d="M448,64.1V38.6h-9.1v-3.2h21.8v3.2h-9.1v25.6H448z"/>
		<path class="st0" d="M485.8,64.1V50.9H469v13.2h-3.6V35.4h3.6v12.4h16.8V35.4h3.6v28.7H485.8z"/>
		<path class="st0" d="M496.7,64.1V35.4h18.8v3.2h-15.3v9.3h15V51h-15v9.9h15.3v3.2H496.7z"/>
		<path class="st0" d="M534.1,64.1V35.4h11.5c5.8,0,9,4,9,8.7s-3.3,8.7-9,8.7h-8v11.4H534.1z M551,44.1c0-3.2-2.3-5.5-5.7-5.5h-7.5
			v10.9h7.5C548.6,49.5,551,47.3,551,44.1z"/>
		<path class="st0" d="M558.6,49.8c0-8.5,5.8-14.9,14.3-14.9c8.5,0,14.3,6.4,14.3,14.9s-5.8,14.9-14.3,14.9
			C564.4,64.6,558.6,58.3,558.6,49.8z M583.5,49.8c0-6.7-4.2-11.7-10.6-11.7c-6.5,0-10.6,5-10.6,11.7c0,6.7,4.1,11.7,10.6,11.7
			C579.3,61.5,583.5,56.5,583.5,49.8z"/>
		<path class="st0" d="M614.3,64.1L607.9,41l-6.3,23.2h-3.9l-8.2-28.7h4l6.4,24l6.6-24h3l6.6,24l6.3-24h4l-8.2,28.7H614.3z"/>
		<path class="st0" d="M630.8,64.1V35.4h18.8v3.2h-15.3v9.3h15V51h-15v9.9h15.3v3.2H630.8z"/>
		<path class="st0" d="M672.2,64.1l-7.3-11.4h-5.8v11.4h-3.6V35.4h11.5c5.3,0,9,3.4,9,8.7c0,5.2-3.6,8-7.5,8.4l7.8,11.7H672.2z
			 M672.5,44.1c0-3.3-2.4-5.5-5.8-5.5h-7.5v11h7.5C670.1,49.6,672.5,47.3,672.5,44.1z"/>
		<path class="st0" d="M448,106.4V80.8h-9.1v-3.2h21.8v3.2h-9.1v25.6H448z"/>
		<path class="st0" d="M462.8,92c0-8.5,5.8-14.9,14.3-14.9c8.5,0,14.3,6.4,14.3,14.9c0,8.5-5.8,14.9-14.3,14.9
			C468.6,106.9,462.8,100.5,462.8,92z M487.7,92c0-6.7-4.2-11.7-10.6-11.7c-6.5,0-10.6,5-10.6,11.7c0,6.7,4.1,11.7,10.6,11.7
			C483.5,103.7,487.7,98.7,487.7,92z"/>
		<path class="st0" d="M509.8,106.4V77.6h9.8c9,0,14.7,6.2,14.7,14.4c0,8.2-5.8,14.3-14.7,14.3H509.8z M530.7,92
			c0-6.2-3.9-11.2-11-11.2h-6.2v22.4h6.2C526.6,103.2,530.7,98.2,530.7,92z"/>
		<path class="st0" d="M539,92c0-8.5,5.8-14.9,14.3-14.9s14.3,6.4,14.3,14.9c0,8.5-5.8,14.9-14.3,14.9S539,100.5,539,92z M563.8,92
			c0-6.7-4.2-11.7-10.6-11.7c-6.5,0-10.6,5-10.6,11.7c0,6.7,4.1,11.7,10.6,11.7C559.6,103.7,563.8,98.7,563.8,92z"/>
		<path class="st0" d="M584.8,92c0-9,6.6-14.9,14.8-14.9c5.1,0,8.7,2.2,11.2,5.3l-2.8,1.8c-1.8-2.3-4.9-4-8.3-4
			c-6.3,0-11.1,4.8-11.1,11.7c0,6.8,4.8,11.7,11.1,11.7c3.4,0,6.3-1.6,7.8-3.1v-5.8h-9.9v-3.2h13.4v10.3c-2.7,3-6.6,5-11.3,5
			C591.4,106.9,584.8,100.9,584.8,92z"/>
		<path class="st0" d="M615.8,92c0-8.5,5.8-14.9,14.3-14.9s14.3,6.4,14.3,14.9c0,8.5-5.8,14.9-14.3,14.9S615.8,100.5,615.8,92z
			 M640.7,92c0-6.7-4.2-11.7-10.6-11.7c-6.5,0-10.6,5-10.6,11.7c0,6.7,4.1,11.7,10.6,11.7C636.5,103.7,640.7,98.7,640.7,92z"/>
		<path class="st0" d="M648.9,92c0-8.5,5.8-14.9,14.3-14.9c8.5,0,14.3,6.4,14.3,14.9c0,8.5-5.8,14.9-14.3,14.9
			C654.7,106.9,648.9,100.5,648.9,92z M673.8,92c0-6.7-4.2-11.7-10.6-11.7c-6.5,0-10.6,5-10.6,11.7c0,6.7,4.1,11.7,10.6,11.7
			C669.6,103.7,673.8,98.7,673.8,92z"/>
		<path class="st0" d="M683.5,106.4V77.6h9.8c9,0,14.7,6.2,14.7,14.4c0,8.2-5.8,14.3-14.7,14.3H683.5z M704.3,92
			c0-6.2-3.9-11.2-11-11.2h-6.2v22.4h6.2C700.3,103.2,704.3,98.2,704.3,92z"/>
		<g>
			<path class="st0" d="M710.7,78.3h-1.6v-0.7h4v0.7h-1.6v4.1h-0.8V78.3z M713.8,77.5h1l1.6,3.9l1.6-3.9h1v4.8h-0.7v-3.6l-1.5,3.6
				H716l-1.5-3.6v3.6h-0.7V77.5z"/>
		</g>
		<g>
			<g>
				<rect x="412.1" y="35.4" class="st0" width="1.1" height="70.9"/>
			</g>
		</g>
	</g>
	<g>
		<g>
			<g>
				<g>
					<radialGradient id="SVGID_1_" cx="238.2076" cy="70.8496" r="136.0673" gradientUnits="userSpaceOnUse">
						<stop  offset="0.4" style="stop-color:#00B5E2"/>
						<stop  offset="1" style="stop-color:#0077C8"/>
					</radialGradient>
					<path class="st1" d="M266.6,74.5v-13h-38.6v13H266.6z M184.8,48.4h15.9V35.4h-15.9V48.4z M176,35.4h-17.9l-19.3,23.9
						l-18.6-23.9h-19.1l27.4,34.2L99,106.3h17.9l21.7-27.1l21.8,27.1h19.1l-30.6-37.4L176,35.4z M184.8,106.3h15.9V61.5h-15.9V106.3
						z M212.1,106.3h15.9V74.5h-15.9V106.3z M362.2,35.4V85l-41-49.6h-14.5v70.9h15.2V56.7l41,49.6h14.5V35.4H362.2z M279.4,48.4
						h15.9V35.4h-15.9V48.4z M279.4,106.3h15.9V61.5h-15.9V106.3z M212.1,61.5h15.9V48.4h40.7v-13h-56.6V61.5z"/>
				</g>
			</g>
		</g>
		<path class="st2" d="M51.3,61.5H35.5v13.1h15.9v13h15.9V74.5H51.3V61.5z M67.2,48.4v13.1h15.9V48.4H67.2z"/>
	</g>
</g>
</svg>
